{
	"asset":{
		"generator":"Khronos glTF Blender I/O v5.1.19",
		"version":"2.0"
	},
	"extensionsUsed":[
		"KHR_materials_specular",
		"KHR_materials_ior"
	],
	"scene":0,
	"scenes":[
		{
			"name":"Scene",
			"nodes":[
				0,
				1
			]
		}
	],
	"nodes":[
		{
			"mesh":0,
			"name":"Treasure_Chest_Bottom_Model"
		},
		{
			"mesh":1,
			"name":"Treasure_Chest_Top_Model",
			"scale":[
				1,
				1,
				0.9899910688400269
			],
			"translation":[
				0,
				0.24786898493766785,
				0.1818525642156601
			]
		}
	],
	"materials":[
		{
			"doubleSided":true,
			"extensions":{
				"KHR_materials_specular":{
					"specularFactor":0
				},
				"KHR_materials_ior":{
					"ior":1.4500000476837158
				}
			},
			"name":"Material",
			"pbrMetallicRoughness":{
				"baseColorTexture":{
					"index":0
				},
				"metallicFactor":0,
				"roughnessFactor":0.5
			}
		}
	],
	"meshes":[
		{
			"name":"Cube.130",
			"primitives":[
				{
					"attributes":{
						"POSITION":0,
						"NORMAL":1,
						"TEXCOORD_0":2
					},
					"indices":3,
					"material":0
				}
			]
		},
		{
			"name":"Cylinder.166",
			"primitives":[
				{
					"attributes":{
						"POSITION":4,
						"NORMAL":5,
						"TEXCOORD_0":6
					},
					"indices":7,
					"material":0
				}
			]
		}
	],
	"textures":[
		{
			"sampler":0,
			"source":0
		}
	],
	"images":[
		{
			"mimeType":"image/png",
			"name":"Treasure_Chest_Basecolor",
			"uri":"Treasure_Chest_Basecolor.png"
		}
	],
	"accessors":[
		{
			"bufferView":0,
			"componentType":5126,
			"count":1057,
			"max":[
				0.3285336196422577,
				0.2542392611503601,
				0.17683449387550354
			],
			"min":[
				-0.3285336196422577,
				-0.0004991888999938965,
				-0.17683449387550354
			],
			"type":"VEC3"
		},
		{
			"bufferView":1,
			"componentType":5126,
			"count":1057,
			"type":"VEC3"
		},
		{
			"bufferView":2,
			"componentType":5126,
			"count":1057,
			"type":"VEC2"
		},
		{
			"bufferView":3,
			"componentType":5123,
			"count":2478,
			"type":"SCALAR"
		},
		{
			"bufferView":4,
			"componentType":5126,
			"count":1068,
			"max":[
				0.327440470457077,
				0.20239363610744476,
				0.014636717736721039
			],
			"min":[
				-0.3274376690387726,
				-0.0758468359708786,
				-0.3647708594799042
			],
			"type":"VEC3"
		},
		{
			"bufferView":5,
			"componentType":5126,
			"count":1068,
			"type":"VEC3"
		},
		{
			"bufferView":6,
			"componentType":5126,
			"count":1068,
			"type":"VEC2"
		},
		{
			"bufferView":7,
			"componentType":5123,
			"count":2700,
			"type":"SCALAR"
		}
	],
	"bufferViews":[
		{
			"buffer":0,
			"byteLength":12684,
			"byteOffset":0,
			"target":34962
		},
		{
			"buffer":0,
			"byteLength":12684,
			"byteOffset":12684,
			"target":34962
		},
		{
			"buffer":0,
			"byteLength":8456,
			"byteOffset":25368,
			"target":34962
		},
		{
			"buffer":0,
			"byteLength":4956,
			"byteOffset":33824,
			"target":34963
		},
		{
			"buffer":0,
			"byteLength":12816,
			"byteOffset":38780,
			"target":34962
		},
		{
			"buffer":0,
			"byteLength":12816,
			"byteOffset":51596,
			"target":34962
		},
		{
			"buffer":0,
			"byteLength":8544,
			"byteOffset":64412,
			"target":34962
		},
		{
			"buffer":0,
			"byteLength":5400,
			"byteOffset":72956,
			"target":34963
		}
	],
	"samplers":[
		{
			"magFilter":9729,
			"minFilter":9987
		}
	],
	"buffers":[
		{
			"byteLength":78356,
			"uri":"Treasure_Chest.bin"
		}
	]
}
