{
	"asset":{
		"generator":"Khronos glTF Blender I/O v5.1.19",
		"version":"2.0"
	},
	"scene":0,
	"scenes":[
		{
			"name":"Scene",
			"nodes":[
				0
			]
		}
	],
	"nodes":[
		{
			"mesh":0,
			"name":"Rock_3"
		}
	],
	"materials":[
		{
			"doubleSided":true,
			"name":"Rock_3",
			"pbrMetallicRoughness":{
				"baseColorTexture":{
					"index":0
				},
				"metallicFactor":0,
				"roughnessFactor":0.5
			}
		}
	],
	"meshes":[
		{
			"name":"Cube.035",
			"primitives":[
				{
					"attributes":{
						"POSITION":0,
						"NORMAL":1,
						"TEXCOORD_0":2
					},
					"indices":3,
					"material":0
				}
			]
		}
	],
	"textures":[
		{
			"sampler":0,
			"source":0
		}
	],
	"images":[
		{
			"mimeType":"image/png",
			"name":"Rock_3_Diffuse_Texture",
			"uri":"Rock_3_Diffuse_Texture.png"
		}
	],
	"accessors":[
		{
			"bufferView":0,
			"componentType":5126,
			"count":73,
			"max":[
				2.2846531867980957,
				7.423998832702637,
				2.4871485233306885
			],
			"min":[
				-2.5839428901672363,
				0,
				-2.3634450435638428
			],
			"type":"VEC3"
		},
		{
			"bufferView":1,
			"componentType":5126,
			"count":73,
			"type":"VEC3"
		},
		{
			"bufferView":2,
			"componentType":5126,
			"count":73,
			"type":"VEC2"
		},
		{
			"bufferView":3,
			"componentType":5123,
			"count":240,
			"type":"SCALAR"
		}
	],
	"bufferViews":[
		{
			"buffer":0,
			"byteLength":876,
			"byteOffset":0,
			"target":34962
		},
		{
			"buffer":0,
			"byteLength":876,
			"byteOffset":876,
			"target":34962
		},
		{
			"buffer":0,
			"byteLength":584,
			"byteOffset":1752,
			"target":34962
		},
		{
			"buffer":0,
			"byteLength":480,
			"byteOffset":2336,
			"target":34963
		}
	],
	"samplers":[
		{
			"magFilter":9729,
			"minFilter":9987
		}
	],
	"buffers":[
		{
			"byteLength":2816,
			"uri":"Rock_03.bin"
		}
	]
}
